<?xml version="1.0" encoding="UTF-8" standalone="no"?><!DOCTYPE svg PUBLIC "-//W3C//DTD SVG 1.1//EN" "http://www.w3.org/Graphics/SVG/1.1/DTD/svg11.dtd"><svg width="100%" height="100%" viewBox="0 0 512 512" version="1.1" xmlns="http://www.w3.org/2000/svg" xmlns:xlink="http://www.w3.org/1999/xlink" xml:space="preserve" xmlns:serif="http://www.serif.com/" style="fill-rule:evenodd;clip-rule:evenodd;stroke-linejoin:round;stroke-miterlimit:1.41421;"><path d="M448,145.666c0,-0.92 -0.746,-1.666 -1.666,-1.666l-380.668,0c-0.92,0 -1.666,0.746 -1.666,1.666l0,28.358c0,0.919 0.746,1.666 1.666,1.666l380.668,0c0.92,0 1.666,-0.747 1.666,-1.666l0,-28.358Z" style="fill:#fff;"/><path d="M448,337.976c0,-0.919 -0.746,-1.666 -1.666,-1.666l-380.668,0c-0.92,0 -1.666,0.747 -1.666,1.666l0,28.358c0,0.92 0.746,1.666 1.666,1.666l380.668,0c0.92,0 1.666,-0.746 1.666,-1.666l0,-28.358Z" style="fill:#fff;"/><path d="M448,241.821c0,-0.92 -0.746,-1.666 -1.666,-1.666l-380.668,0c-0.92,0 -1.666,0.746 -1.666,1.666l0,28.358c0,0.92 0.746,1.666 1.666,1.666l380.668,0c0.92,0 1.666,-0.746 1.666,-1.666l0,-28.358Z" style="fill:#fff;"/></svg>